<svg width="310" height="95" viewBox="0 0 310 95" fill="none" xmlns="http://www.w3.org/2000/svg">
<mask id="path-1-outside-1_39_2" maskUnits="userSpaceOnUse" x="-0.399616" y="24.0549" width="40.4767" height="56.6811" fill="black">
<rect fill="white" x="-0.399616" y="24.0549" width="40.4767" height="56.6811"/>
<path d="M37.5358 67.0285C37.6196 68.8579 37.239 70.5559 36.3941 72.1223C35.5492 73.6888 34.3855 74.9643 32.9028 75.9488C31.4202 76.9334 29.7641 77.4675 27.9347 77.5513L7.582 78.4835C6.61645 78.5278 5.76282 78.2359 5.02111 77.6078C4.32789 76.9266 3.95916 76.1032 3.91494 75.1377L1.87593 30.621C1.82938 29.6046 2.12129 28.751 2.75167 28.0601C3.43286 27.3669 4.25623 26.9982 5.22178 26.9539L24.5073 26.0706C26.3875 25.9845 28.0855 26.365 29.6011 27.2122C31.1676 28.0571 32.4431 29.2209 33.4276 30.7036C34.4122 32.1862 34.9475 33.8677 35.0336 35.7479L35.4491 44.819C35.512 46.1911 35.3161 47.4732 34.8614 48.6653C34.6329 49.2359 34.7093 49.7926 35.0907 50.3353C36.2855 51.9611 36.9306 53.8157 37.026 55.8993L37.5358 67.0285ZM26.4543 45.231L26.0388 36.1599C26.0249 35.855 25.8862 35.6068 25.6228 35.4151C25.4102 35.2212 25.1768 35.13 24.9228 35.1416L12.269 35.7212C11.6084 35.7515 11.2932 36.0969 11.3235 36.7576L11.7424 45.9048C11.7727 46.5655 12.1181 46.8807 12.7788 46.8504L25.4325 46.2708C25.6866 46.2592 25.9106 46.1471 26.1046 45.9345C26.3494 45.7196 26.4659 45.4851 26.4543 45.231ZM28.4648 67.4439L27.955 56.3148C27.9224 55.6033 27.5758 55.2627 26.9152 55.293L13.1943 55.9214C12.5336 55.9517 12.2184 56.2971 12.2487 56.9578L12.7654 68.2394C12.7957 68.9 13.1411 69.2152 13.8018 69.185L27.5227 68.5565C27.7768 68.5449 28.0008 68.4328 28.1948 68.2202C28.3864 67.9568 28.4764 67.698 28.4648 67.4439Z"/>
</mask>
<path d="M37.5358 67.0285C37.6196 68.8579 37.239 70.5559 36.3941 72.1223C35.5492 73.6888 34.3855 74.9643 32.9028 75.9488C31.4202 76.9334 29.7641 77.4675 27.9347 77.5513L7.582 78.4835C6.61645 78.5278 5.76282 78.2359 5.02111 77.6078C4.32789 76.9266 3.95916 76.1032 3.91494 75.1377L1.87593 30.621C1.82938 29.6046 2.12129 28.751 2.75167 28.0601C3.43286 27.3669 4.25623 26.9982 5.22178 26.9539L24.5073 26.0706C26.3875 25.9845 28.0855 26.365 29.6011 27.2122C31.1676 28.0571 32.4431 29.2209 33.4276 30.7036C34.4122 32.1862 34.9475 33.8677 35.0336 35.7479L35.4491 44.819C35.512 46.1911 35.3161 47.4732 34.8614 48.6653C34.6329 49.2359 34.7093 49.7926 35.0907 50.3353C36.2855 51.9611 36.9306 53.8157 37.026 55.8993L37.5358 67.0285ZM26.4543 45.231L26.0388 36.1599C26.0249 35.855 25.8862 35.6068 25.6228 35.4151C25.4102 35.2212 25.1768 35.13 24.9228 35.1416L12.269 35.7212C11.6084 35.7515 11.2932 36.0969 11.3235 36.7576L11.7424 45.9048C11.7727 46.5655 12.1181 46.8807 12.7788 46.8504L25.4325 46.2708C25.6866 46.2592 25.9106 46.1471 26.1046 45.9345C26.3494 45.7196 26.4659 45.4851 26.4543 45.231ZM28.4648 67.4439L27.955 56.3148C27.9224 55.6033 27.5758 55.2627 26.9152 55.293L13.1943 55.9214C12.5336 55.9517 12.2184 56.2971 12.2487 56.9578L12.7654 68.2394C12.7957 68.9 13.1411 69.2152 13.8018 69.185L27.5227 68.5565C27.7768 68.5449 28.0008 68.4328 28.1948 68.2202C28.3864 67.9568 28.4764 67.698 28.4648 67.4439Z" fill="#EF4444"/>
<path d="M36.3941 72.1223L35.3448 71.5563L35.3448 71.5563L36.3941 72.1223ZM32.9028 75.9488L33.5624 76.9421L33.5624 76.9421L32.9028 75.9488ZM5.02111 77.6078L4.18544 78.4582L4.21693 78.4892L4.25063 78.5177L5.02111 77.6078ZM2.75167 28.0601L1.90124 27.2244L1.88577 27.2402L1.87089 27.2565L2.75167 28.0601ZM29.6011 27.2122L29.0194 28.253L29.0272 28.2574L29.0351 28.2616L29.6011 27.2122ZM33.4276 30.7036L32.4344 31.3631L32.4344 31.3631L33.4276 30.7036ZM34.8614 48.6653L35.9683 49.1085L35.9719 49.0993L35.9754 49.0901L34.8614 48.6653ZM35.0907 50.3353L34.1151 51.0208L34.1224 51.0311L34.1299 51.0413L35.0907 50.3353ZM25.6228 35.4151L24.8191 36.2959L24.8679 36.3404L24.9213 36.3793L25.6228 35.4151ZM26.1046 45.9345L25.3179 45.0385L25.2683 45.0821L25.2238 45.1309L26.1046 45.9345ZM28.1948 68.2202L29.0755 69.0238L29.12 68.975L29.1589 68.9216L28.1948 68.2202ZM36.3447 67.083C36.419 68.7032 36.084 70.1858 35.3448 71.5563L37.4435 72.6883C38.3941 70.926 38.8202 69.0127 38.7268 66.9739L36.3447 67.083ZM35.3448 71.5563C34.5928 72.9505 33.5629 74.0793 32.2433 74.9556L33.5624 76.9421C35.2081 75.8492 36.5057 74.427 37.4435 72.6883L35.3448 71.5563ZM32.2433 74.9556C30.946 75.817 29.5003 76.2861 27.8801 76.3603L27.9892 78.7424C30.028 78.649 31.8943 78.0497 33.5624 76.9421L32.2433 74.9556ZM27.8801 76.3603L7.52744 77.2925L7.63655 79.6746L27.9892 78.7424L27.8801 76.3603ZM7.52744 77.2925C6.86438 77.3229 6.30504 77.1327 5.79158 76.6979L4.25063 78.5177C5.22061 79.3391 6.36853 79.7327 7.63655 79.6746L7.52744 77.2925ZM5.85678 76.7574C5.3769 76.2858 5.13636 75.7462 5.10599 75.0831L2.72389 75.1923C2.78197 76.4603 3.27888 77.5674 4.18544 78.4582L5.85678 76.7574ZM5.10599 75.0831L3.06698 30.5664L0.684882 30.6755L2.72389 75.1923L5.10599 75.0831ZM3.06698 30.5664C3.0335 29.8354 3.23499 29.2993 3.63245 28.8637L1.87089 27.2565C1.0076 28.2027 0.625262 29.3739 0.684882 30.6755L3.06698 30.5664ZM3.6021 28.8958C4.07366 28.4159 4.61327 28.1753 5.27633 28.145L5.16723 25.7629C3.8992 25.821 2.79207 26.3179 1.90124 27.2244L3.6021 28.8958ZM5.27633 28.145L24.5618 27.2616L24.4527 24.8795L5.16723 25.7629L5.27633 28.145ZM24.5618 27.2616C26.2395 27.1848 27.7139 27.5233 29.0194 28.253L30.1829 26.1715C28.4571 25.2068 26.5356 24.7841 24.4527 24.8795L24.5618 27.2616ZM29.0351 28.2616C30.4293 29.0136 31.5581 30.0435 32.4344 31.3631L34.4209 30.044C33.328 28.3983 31.9058 27.1007 30.1671 26.1629L29.0351 28.2616ZM32.4344 31.3631C33.2924 32.6553 33.7658 34.1251 33.8426 35.8025L36.2247 35.6934C36.1293 33.6102 35.5319 31.7172 34.4209 30.044L32.4344 31.3631ZM33.8426 35.8025L34.2581 44.8735L36.6402 44.7644L36.2247 35.6934L33.8426 35.8025ZM34.2581 44.8735C34.314 46.0949 34.1394 47.2126 33.7474 48.2404L35.9754 49.0901C36.4927 47.7338 36.7099 46.2873 36.6402 44.7644L34.2581 44.8735ZM33.7545 48.2221C33.3626 49.2009 33.5239 50.1793 34.1151 51.0208L36.0662 49.6498C35.8948 49.4059 35.9032 49.2709 35.9683 49.1085L33.7545 48.2221ZM34.1299 51.0413C35.1804 52.4708 35.7499 54.097 35.835 55.9538L38.2171 55.8447C38.1113 53.5345 37.3905 51.4514 36.0514 49.6292L34.1299 51.0413ZM35.835 55.9538L36.3447 67.083L38.7268 66.9739L38.2171 55.8447L35.835 55.9538ZM27.6453 45.1764L27.2299 36.1054L24.8478 36.2145L25.2632 45.2855L27.6453 45.1764ZM27.2299 36.1054C27.1981 35.4116 26.8579 34.8392 26.3242 34.451L24.9213 36.3793C24.9338 36.3883 24.9096 36.3734 24.8834 36.3265C24.856 36.2773 24.8486 36.2331 24.8478 36.2145L27.2299 36.1054ZM26.4264 34.5343C26.0137 34.1578 25.4807 33.9225 24.8682 33.9506L24.9773 36.3327C24.9403 36.3344 24.8956 36.3279 24.8544 36.3118C24.8161 36.2969 24.8051 36.2831 24.8191 36.2959L26.4264 34.5343ZM24.8682 33.9506L12.2145 34.5302L12.3236 36.9123L24.9773 36.3327L24.8682 33.9506ZM12.2145 34.5302C11.7006 34.5537 11.1023 34.7107 10.6564 35.1994C10.2105 35.6881 10.1089 36.2982 10.1324 36.8121L12.5145 36.703C12.5113 36.6335 12.5199 36.6208 12.5127 36.6461C12.5039 36.6772 12.478 36.7408 12.4179 36.8066C12.3579 36.8724 12.2969 36.9041 12.2667 36.9157C12.2423 36.9251 12.2541 36.9154 12.3236 36.9123L12.2145 34.5302ZM10.1324 36.8121L10.5514 45.9594L12.9335 45.8503L12.5145 36.703L10.1324 36.8121ZM10.5514 45.9594C10.5749 46.4733 10.7319 47.0716 11.2206 47.5175C11.7093 47.9634 12.3194 48.065 12.8333 48.0414L12.7242 45.6593C12.6548 45.6625 12.6421 45.654 12.6673 45.6611C12.6984 45.6699 12.762 45.6959 12.8278 45.7559C12.8937 45.816 12.9253 45.877 12.9369 45.9071C12.9463 45.9316 12.9367 45.9197 12.9335 45.8503L10.5514 45.9594ZM12.8333 48.0414L25.4871 47.4619L25.378 45.0798L12.7242 45.6593L12.8333 48.0414ZM25.4871 47.4619C26.0996 47.4338 26.6088 47.1508 26.9854 46.7381L25.2238 45.1309C25.211 45.1449 25.2207 45.1302 25.2575 45.1118C25.297 45.092 25.341 45.0815 25.378 45.0798L25.4871 47.4619ZM26.8912 46.8305C27.3251 46.4495 27.678 45.89 27.6453 45.1764L25.2632 45.2855C25.2595 45.204 25.2788 45.1253 25.3079 45.0667C25.3333 45.0157 25.3513 45.0092 25.3179 45.0385L26.8912 46.8305ZM29.6558 67.3894L29.1461 56.2602L26.764 56.3693L27.2737 67.4985L29.6558 67.3894ZM29.1461 56.2602C29.1223 55.7419 28.9758 55.1367 28.5063 54.6753C28.0205 54.1979 27.3981 54.0773 26.8606 54.1019L26.9697 56.484C27.0312 56.4812 27.0346 56.4897 27.0007 56.4793C26.96 56.4667 26.8956 56.4358 26.8349 56.3762C26.7761 56.3183 26.7541 56.2664 26.75 56.255C26.7476 56.2482 26.7599 56.2799 26.764 56.3693L29.1461 56.2602ZM26.8606 54.1019L13.1397 54.7304L13.2488 57.1125L26.9697 56.484L26.8606 54.1019ZM13.1397 54.7304C12.6258 54.7539 12.0275 54.9109 11.5816 55.3996C11.1357 55.8883 11.0341 56.4984 11.0576 57.0123L13.4398 56.9032C13.4366 56.8338 13.4451 56.8211 13.438 56.8463C13.4292 56.8774 13.4032 56.941 13.3432 57.0068C13.2831 57.0726 13.2221 57.1043 13.192 57.1159C13.1675 57.1253 13.1794 57.1157 13.2488 57.1125L13.1397 54.7304ZM11.0576 57.0123L11.5744 68.294L13.9565 68.1849L13.4398 56.9032L11.0576 57.0123ZM11.5744 68.294C11.5979 68.8079 11.7549 69.4062 12.2436 69.8521C12.7323 70.298 13.3424 70.3996 13.8563 70.376L13.7472 67.9939C13.6778 67.9971 13.6651 67.9886 13.6903 67.9957C13.7214 68.0045 13.785 68.0305 13.8508 68.0905C13.9166 68.1505 13.9483 68.2116 13.9599 68.2417C13.9693 68.2662 13.9597 68.2543 13.9565 68.1849L11.5744 68.294ZM13.8563 70.376L27.5772 69.7476L27.4681 67.3655L13.7472 67.9939L13.8563 70.376ZM27.5772 69.7476C28.1897 69.7195 28.699 69.4365 29.0755 69.0238L27.314 67.4166C27.3011 67.4306 27.3109 67.4159 27.3477 67.3975C27.3872 67.3777 27.4312 67.3672 27.4681 67.3655L27.5772 69.7476ZM29.1589 68.9216C29.4644 68.5017 29.683 67.982 29.6558 67.3894L27.2737 67.4985C27.273 67.482 27.274 67.4673 27.2758 67.4553C27.2776 67.4435 27.2798 67.4371 27.2799 67.4369C27.2799 67.4368 27.2775 67.4436 27.27 67.4575C27.2625 67.4715 27.2501 67.4919 27.2306 67.5187L29.1589 68.9216Z" fill="#8A8A8A" fill-opacity="0.25" mask="url(#path-1-outside-1_39_2)"/>
<mask id="path-3-outside-2_39_2" maskUnits="userSpaceOnUse" x="37.5335" y="20.0142" width="19.4616" height="55.4608" fill="black">
<rect fill="white" x="37.5335" y="20.0142" width="19.4616" height="55.4608"/>
<path d="M53.615 69.9119C53.5893 70.8781 53.2109 71.7077 52.4799 72.4007C51.8012 73.0441 50.9787 73.3529 50.0125 73.3271L48.1055 73.2762C45.7662 73.2137 43.7792 72.3464 42.1445 70.6743C40.5112 68.9514 39.7264 66.8948 39.7902 64.5047L40.8453 24.9917C40.8724 23.9746 41.2254 23.1444 41.9041 22.5009C42.6337 21.8588 43.4816 21.5507 44.4478 21.5765L46.5837 21.6335C47.5499 21.6593 48.3547 22.0116 48.9982 22.6903C49.6925 23.3705 50.026 24.219 49.9989 25.2361L48.9825 63.2998C48.9649 63.9609 49.2612 64.2996 49.8714 64.3159L50.2528 64.3261C51.219 64.3519 52.0239 64.7041 52.6673 65.3829C53.3616 66.063 53.6952 66.9116 53.668 67.9286L53.615 69.9119Z"/>
</mask>
<path d="M53.615 69.9119C53.5893 70.8781 53.2109 71.7077 52.4799 72.4007C51.8012 73.0441 50.9787 73.3529 50.0125 73.3271L48.1055 73.2762C45.7662 73.2137 43.7792 72.3464 42.1445 70.6743C40.5112 68.9514 39.7264 66.8948 39.7902 64.5047L40.8453 24.9917C40.8724 23.9746 41.2254 23.1444 41.9041 22.5009C42.6337 21.8588 43.4816 21.5507 44.4478 21.5765L46.5837 21.6335C47.5499 21.6593 48.3547 22.0116 48.9982 22.6903C49.6925 23.3705 50.026 24.219 49.9989 25.2361L48.9825 63.2998C48.9649 63.9609 49.2612 64.2996 49.8714 64.3159L50.2528 64.3261C51.219 64.3519 52.0239 64.7041 52.6673 65.3829C53.3616 66.063 53.6952 66.9116 53.668 67.9286L53.615 69.9119Z" fill="#A855F7"/>
<path d="M52.4799 72.4007L51.6596 71.5354L51.6596 71.5354L52.4799 72.4007ZM42.1445 70.6743L41.2793 71.4946L41.2856 71.5013L41.292 71.5078L42.1445 70.6743ZM41.9041 22.5009L41.1164 21.6059L41.0999 21.6205L41.0838 21.6356L41.9041 22.5009ZM48.9982 22.6903L48.1329 23.5106L48.1481 23.5266L48.1638 23.5421L48.9982 22.6903ZM52.6673 65.3829L51.802 66.2032L51.8172 66.2192L51.833 66.2346L52.6673 65.3829ZM52.4232 69.8801C52.4062 70.5157 52.1719 71.0498 51.6596 71.5354L53.3002 73.2659C54.2499 72.3656 54.7723 71.2406 54.8069 69.9437L52.4232 69.8801ZM51.6596 71.5354C51.2188 71.9533 50.7062 72.1529 50.0443 72.1352L49.9807 74.519C51.2512 74.5529 52.3835 74.1349 53.3002 73.2659L51.6596 71.5354ZM50.0443 72.1352L48.1373 72.0843L48.0737 74.4681L49.9807 74.519L50.0443 72.1352ZM48.1373 72.0843C46.1076 72.0301 44.415 71.2912 42.9971 69.8408L41.292 71.5078C43.1435 73.4017 45.4249 74.3973 48.0737 74.4681L48.1373 72.0843ZM43.0098 69.8541C41.5958 68.3624 40.9267 66.6131 40.9821 64.5365L38.5984 64.4729C38.5262 67.1766 39.4266 69.5403 41.2793 71.4946L43.0098 69.8541ZM40.9821 64.5365L42.0371 25.0235L39.6534 24.9599L38.5984 64.4729L40.9821 64.5365ZM42.0371 25.0235C42.0567 24.292 42.2964 23.7719 42.7244 23.3662L41.0838 21.6356C40.1543 22.5168 39.6882 23.6573 39.6534 24.9599L42.0371 25.0235ZM42.6918 23.396C43.1969 22.9515 43.7525 22.7507 44.416 22.7684L44.4797 20.3846C43.2108 20.3507 42.0706 20.7662 41.1164 21.6059L42.6918 23.396ZM44.416 22.7684L46.5518 22.8254L46.6155 20.4417L44.4797 20.3846L44.416 22.7684ZM46.5518 22.8254C47.2138 22.8431 47.715 23.0698 48.1329 23.5106L49.8634 21.8701C48.9944 20.9534 47.886 20.4756 46.6155 20.4417L46.5518 22.8254ZM48.1638 23.5421C48.6091 23.9782 48.8258 24.5011 48.807 25.2043L51.1907 25.2679C51.2263 23.9369 50.7758 22.7627 49.8325 21.8386L48.1638 23.5421ZM48.807 25.2043L47.7907 63.268L50.1744 63.3316L51.1907 25.2679L48.807 25.2043ZM47.7907 63.268C47.7775 63.7596 47.8732 64.3535 48.2941 64.8347C48.7312 65.3343 49.3252 65.494 49.8396 65.5078L49.9032 63.124C49.8551 63.1227 49.8641 63.1161 49.9073 63.133C49.9572 63.1525 50.0269 63.1938 50.0889 63.2646C50.2135 63.4071 50.1699 63.5011 50.1744 63.3316L47.7907 63.268ZM49.8396 65.5078L50.221 65.518L50.2846 63.1342L49.9032 63.124L49.8396 65.5078ZM50.221 65.518C50.8829 65.5356 51.3841 65.7624 51.802 66.2032L53.5326 64.5626C52.6636 63.6459 51.5551 63.1681 50.2846 63.1342L50.221 65.518ZM51.833 66.2346C52.2782 66.6708 52.4949 67.1937 52.4761 67.8968L54.8599 67.9605C54.8954 66.6295 54.445 65.4552 53.5016 64.5311L51.833 66.2346ZM52.4761 67.8968L52.4232 69.8801L54.8069 69.9437L54.8599 67.9605L52.4761 67.8968Z" fill="#8A8A8A" fill-opacity="0.25" mask="url(#path-3-outside-2_39_2)"/>
<mask id="path-5-outside-3_39_2" maskUnits="userSpaceOnUse" x="54.1494" y="34.0423" width="32.935" height="44.3734" fill="black">
<rect fill="white" x="54.1494" y="34.0423" width="32.935" height="44.3734"/>
<path d="M85.2788 66.5225C85.3882 68.9109 84.6428 70.9821 83.0426 72.7359C81.4909 74.4366 79.5462 75.3404 77.2086 75.4475L66.613 75.9328C64.2754 76.0399 62.2308 75.3187 60.4793 73.7694C58.7255 72.1692 57.7939 70.1748 57.6845 67.7864L56.658 45.3756C56.5859 43.8002 56.9018 42.3599 57.6059 41.0545C58.3585 39.696 59.3525 38.6065 60.5881 37.786C61.8236 36.9656 63.2291 36.5192 64.8044 36.4471L75.4 35.9618C76.9754 35.8896 78.4157 36.2056 79.7211 36.9097C81.0265 37.6137 82.0906 38.609 82.9134 39.8953C83.7338 41.1309 84.1801 42.5363 84.2523 44.1117L85.2788 66.5225ZM76.2176 65.4862L75.3308 46.1244C75.3168 45.8195 75.1781 45.5713 74.9147 45.3796C74.7022 45.1857 74.4688 45.0945 74.2147 45.1061L66.8207 45.4448C66.5666 45.4564 66.3172 45.5697 66.0724 45.7846C65.8784 45.9972 65.7884 46.256 65.8024 46.5609L66.6892 65.9226C66.7008 66.1767 66.813 66.4007 67.0255 66.5947C67.2889 66.7863 67.5477 66.8763 67.8018 66.8647L75.1958 66.526C75.4499 66.5144 75.6739 66.4022 75.8679 66.1897C76.1127 65.9748 76.2293 65.7403 76.2176 65.4862Z"/>
</mask>
<path d="M85.2788 66.5225C85.3882 68.9109 84.6428 70.9821 83.0426 72.7359C81.4909 74.4366 79.5462 75.3404 77.2086 75.4475L66.613 75.9328C64.2754 76.0399 62.2308 75.3187 60.4793 73.7694C58.7255 72.1692 57.7939 70.1748 57.6845 67.7864L56.658 45.3756C56.5859 43.8002 56.9018 42.3599 57.6059 41.0545C58.3585 39.696 59.3525 38.6065 60.5881 37.786C61.8236 36.9656 63.2291 36.5192 64.8044 36.4471L75.4 35.9618C76.9754 35.8896 78.4157 36.2056 79.7211 36.9097C81.0265 37.6137 82.0906 38.609 82.9134 39.8953C83.7338 41.1309 84.1801 42.5363 84.2523 44.1117L85.2788 66.5225ZM76.2176 65.4862L75.3308 46.1244C75.3168 45.8195 75.1781 45.5713 74.9147 45.3796C74.7022 45.1857 74.4688 45.0945 74.2147 45.1061L66.8207 45.4448C66.5666 45.4564 66.3172 45.5697 66.0724 45.7846C65.8784 45.9972 65.7884 46.256 65.8024 46.5609L66.6892 65.9226C66.7008 66.1767 66.813 66.4007 67.0255 66.5947C67.2889 66.7863 67.5477 66.8763 67.8018 66.8647L75.1958 66.526C75.4499 66.5144 75.6739 66.4022 75.8679 66.1897C76.1127 65.9748 76.2293 65.7403 76.2176 65.4862Z" fill="#F97315"/>
<path d="M83.0426 72.7359L83.9234 73.5395L83.9234 73.5395L83.0426 72.7359ZM60.4793 73.7694L59.6757 74.6501L59.6825 74.6563L59.6893 74.6624L60.4793 73.7694ZM57.6059 41.0545L56.5629 40.4767L56.5565 40.4885L57.6059 41.0545ZM60.5881 37.786L59.9285 36.7928L59.9285 36.7928L60.5881 37.786ZM79.7211 36.9097L79.1551 37.959L79.1551 37.959L79.7211 36.9097ZM82.9134 39.8953L81.9089 40.5378L81.9144 40.5464L81.9201 40.5549L82.9134 39.8953ZM74.9147 45.3796L74.1111 46.2604L74.1599 46.3049L74.2133 46.3438L74.9147 45.3796ZM66.0724 45.7846L65.2857 44.8887L65.2361 44.9322L65.1916 44.981L66.0724 45.7846ZM67.0255 66.5947L66.2219 67.4754L66.2707 67.52L66.3241 67.5588L67.0255 66.5947ZM75.8679 66.1897L75.0813 65.2937L75.0316 65.3373L74.9871 65.386L75.8679 66.1897ZM84.0877 66.577C84.1828 68.6521 83.5472 70.4139 82.1618 71.9323L83.9234 73.5395C85.7384 71.5502 86.5936 69.1698 86.4698 66.4679L84.0877 66.577ZM82.1618 71.9323C80.8272 73.395 79.1816 74.1636 77.154 74.2564L77.2631 76.6385C79.9108 76.5173 82.1546 75.4781 83.9234 73.5395L82.1618 71.9323ZM77.154 74.2564L66.5584 74.7417L66.6676 77.1239L77.2631 76.6385L77.154 74.2564ZM66.5584 74.7417C64.5301 74.8347 62.7885 74.2202 61.2693 72.8763L59.6893 74.6624C61.6731 76.4172 64.0206 77.2451 66.6676 77.1239L66.5584 74.7417ZM61.2829 72.8886C59.7646 71.5032 58.9706 69.8069 58.8756 67.7318L56.4935 67.8409C56.6172 70.5428 57.6864 72.8351 59.6757 74.6501L61.2829 72.8886ZM58.8756 67.7318L57.8491 45.321L55.467 45.4301L56.4935 67.8409L58.8756 67.7318ZM57.8491 45.321C57.7861 43.9473 58.0603 42.7235 58.6553 41.6205L56.5565 40.4885C55.7433 41.9962 55.3856 43.6531 55.467 45.4301L57.8491 45.321ZM58.6489 41.6322C59.3133 40.4328 60.1789 39.4889 61.2476 38.7793L59.9285 36.7928C58.5261 37.724 57.4036 38.9591 56.5629 40.4767L58.6489 41.6322ZM61.2476 38.7793C62.2917 38.086 63.4853 37.7011 64.859 37.6381L64.7499 35.256C62.9729 35.3374 61.3556 35.8451 59.9285 36.7928L61.2476 38.7793ZM64.859 37.6381L75.4546 37.1528L75.3455 34.7707L64.7499 35.256L64.859 37.6381ZM75.4546 37.1528C76.8283 37.0899 78.0521 37.3641 79.1551 37.959L80.2871 35.8603C78.7794 35.0471 77.1225 34.6893 75.3455 34.7707L75.4546 37.1528ZM79.1551 37.959C80.2767 38.564 81.192 39.4168 81.9089 40.5378L83.9178 39.2529C82.9892 37.8011 81.7762 36.6635 80.2871 35.8603L79.1551 37.959ZM81.9201 40.5549C82.6134 41.5989 82.9983 42.7925 83.0612 44.1662L85.4433 44.0571C85.3619 42.2801 84.8542 40.6628 83.9066 39.2358L81.9201 40.5549ZM83.0612 44.1662L84.0877 66.577L86.4698 66.4679L85.4433 44.0571L83.0612 44.1662ZM77.4087 65.4316L76.5218 46.0699L74.1397 46.179L75.0266 65.5407L77.4087 65.4316ZM76.5218 46.0699C76.4901 45.3761 76.1498 44.8037 75.6162 44.4155L74.2133 46.3438C74.2257 46.3528 74.2016 46.3379 74.1754 46.291C74.1479 46.2418 74.1406 46.1976 74.1397 46.179L76.5218 46.0699ZM75.7184 44.4989C75.3056 44.1223 74.7727 43.887 74.1602 43.9151L74.2693 46.2972C74.2323 46.2989 74.1876 46.2924 74.1464 46.2763C74.1081 46.2614 74.097 46.2476 74.1111 46.2604L75.7184 44.4989ZM74.1602 43.9151L66.7661 44.2538L66.8752 46.6359L74.2693 46.2972L74.1602 43.9151ZM66.7661 44.2538C66.1735 44.2809 65.676 44.546 65.2857 44.8887L66.859 46.6806C66.8839 46.6587 66.9032 46.6445 66.9164 46.6358C66.9295 46.627 66.9361 46.6241 66.936 46.6241C66.9358 46.6242 66.9296 46.6269 66.9181 46.6298C66.9063 46.6327 66.8917 46.6351 66.8752 46.6359L66.7661 44.2538ZM65.1916 44.981C64.7706 45.4425 64.5839 46.0159 64.6113 46.6154L66.9934 46.5063C66.9926 46.4881 66.9957 46.5005 66.9855 46.5298C66.9808 46.5434 66.9746 46.5565 66.9677 46.568C66.9608 46.5794 66.9552 46.5861 66.9531 46.5883L65.1916 44.981ZM64.6113 46.6154L65.4982 65.9771L67.8803 65.868L66.9934 46.5063L64.6113 46.6154ZM65.4982 65.9771C65.5262 66.5896 65.8092 67.0989 66.2219 67.4754L67.8292 65.7139C67.8151 65.7011 67.8298 65.7108 67.8483 65.7476C67.868 65.7871 67.8786 65.8311 67.8803 65.868L65.4982 65.9771ZM66.3241 67.5588C66.7441 67.8643 67.2637 68.0829 67.8563 68.0557L67.7472 65.6736C67.7637 65.6729 67.7785 65.6739 67.7904 65.6757C67.8022 65.6775 67.8086 65.6797 67.8088 65.6798C67.8089 65.6798 67.8021 65.6774 67.7882 65.67C67.7743 65.6624 67.7538 65.65 67.727 65.6305L66.3241 67.5588ZM67.8563 68.0557L75.2504 67.717L75.1413 65.3349L67.7472 65.6736L67.8563 68.0557ZM75.2504 67.717C75.8629 67.689 76.3721 67.406 76.7487 66.9933L74.9871 65.386C74.9743 65.4001 74.984 65.3854 75.0208 65.3669C75.0603 65.3472 75.1043 65.3366 75.1413 65.3349L75.2504 67.717ZM76.6545 67.0856C77.0884 66.7047 77.4413 66.1451 77.4087 65.4316L75.0266 65.5407C75.0228 65.4592 75.0421 65.3805 75.0713 65.3219C75.0966 65.2709 75.1146 65.2644 75.0813 65.2937L76.6545 67.0856Z" fill="#8A8A8A" fill-opacity="0.25" mask="url(#path-5-outside-3_39_2)"/>
<mask id="path-7-outside-4_39_2" maskUnits="userSpaceOnUse" x="84.1494" y="28.0423" width="32.935" height="44.3734" fill="black">
<rect fill="white" x="84.1494" y="28.0423" width="32.935" height="44.3734"/>
<path d="M115.279 60.5225C115.388 62.9109 114.643 64.9821 113.043 66.7359C111.491 68.4366 109.546 69.3404 107.209 69.4475L96.613 69.9328C94.2754 70.0399 92.2308 69.3187 90.4793 67.7694C88.7255 66.1692 87.7939 64.1748 87.6845 61.7864L86.658 39.3756C86.5859 37.8002 86.9018 36.3599 87.6059 35.0545C88.3585 33.696 89.3525 32.6065 90.5881 31.786C91.8236 30.9656 93.2291 30.5192 94.8044 30.4471L105.4 29.9618C106.975 29.8896 108.416 30.2056 109.721 30.9097C111.026 31.6137 112.091 32.609 112.913 33.8953C113.734 35.1309 114.18 36.5363 114.252 38.1117L114.434 42.0755C114.478 43.041 114.186 43.8947 113.558 44.6364C112.928 45.3273 112.13 45.6948 111.164 45.7391L109.03 45.8368C108.064 45.881 107.236 45.588 106.545 44.9576C105.852 44.2764 105.483 43.453 105.439 42.4875L105.331 40.1244C105.317 39.8195 105.178 39.5713 104.915 39.3796C104.702 39.1857 104.469 39.0945 104.215 39.1061L96.8207 39.4448C96.5666 39.4564 96.3172 39.5697 96.0724 39.7846C95.8784 39.9972 95.7884 40.256 95.8024 40.5609L96.6892 59.9226C96.7008 60.1767 96.813 60.4007 97.0255 60.5947C97.2889 60.7863 97.5477 60.8763 97.8018 60.8647L105.196 60.526C105.45 60.5144 105.674 60.4022 105.868 60.1897C106.113 59.9748 106.229 59.7403 106.218 59.4862L106.109 57.1231C106.065 56.1576 106.358 55.3294 106.989 54.6385C107.617 53.8967 108.413 53.5038 109.379 53.4595L111.513 53.3618C112.479 53.3176 113.308 53.636 114.002 54.3172C114.692 54.9476 115.06 55.7456 115.104 56.7111L115.279 60.5225Z"/>
</mask>
<path d="M115.279 60.5225C115.388 62.9109 114.643 64.9821 113.043 66.7359C111.491 68.4366 109.546 69.3404 107.209 69.4475L96.613 69.9328C94.2754 70.0399 92.2308 69.3187 90.4793 67.7694C88.7255 66.1692 87.7939 64.1748 87.6845 61.7864L86.658 39.3756C86.5859 37.8002 86.9018 36.3599 87.6059 35.0545C88.3585 33.696 89.3525 32.6065 90.5881 31.786C91.8236 30.9656 93.2291 30.5192 94.8044 30.4471L105.4 29.9618C106.975 29.8896 108.416 30.2056 109.721 30.9097C111.026 31.6137 112.091 32.609 112.913 33.8953C113.734 35.1309 114.18 36.5363 114.252 38.1117L114.434 42.0755C114.478 43.041 114.186 43.8947 113.558 44.6364C112.928 45.3273 112.13 45.6948 111.164 45.7391L109.03 45.8368C108.064 45.881 107.236 45.588 106.545 44.9576C105.852 44.2764 105.483 43.453 105.439 42.4875L105.331 40.1244C105.317 39.8195 105.178 39.5713 104.915 39.3796C104.702 39.1857 104.469 39.0945 104.215 39.1061L96.8207 39.4448C96.5666 39.4564 96.3172 39.5697 96.0724 39.7846C95.8784 39.9972 95.7884 40.256 95.8024 40.5609L96.6892 59.9226C96.7008 60.1767 96.813 60.4007 97.0255 60.5947C97.2889 60.7863 97.5477 60.8763 97.8018 60.8647L105.196 60.526C105.45 60.5144 105.674 60.4022 105.868 60.1897C106.113 59.9748 106.229 59.7403 106.218 59.4862L106.109 57.1231C106.065 56.1576 106.358 55.3294 106.989 54.6385C107.617 53.8967 108.413 53.5038 109.379 53.4595L111.513 53.3618C112.479 53.3176 113.308 53.636 114.002 54.3172C114.692 54.9476 115.06 55.7456 115.104 56.7111L115.279 60.5225Z" fill="#3C82F6"/>
<path d="M113.043 66.7359L113.923 67.5395L113.923 67.5395L113.043 66.7359ZM90.4793 67.7694L89.6757 68.6501L89.6825 68.6563L89.6893 68.6624L90.4793 67.7694ZM87.6059 35.0545L86.5629 34.4767L86.5565 34.4885L87.6059 35.0545ZM90.5881 31.786L89.9285 30.7928L89.9285 30.7928L90.5881 31.786ZM109.721 30.9097L109.155 31.959L109.155 31.959L109.721 30.9097ZM112.913 33.8953L111.909 34.5378L111.914 34.5464L111.92 34.5549L112.913 33.8953ZM113.558 44.6364L114.439 45.44L114.454 45.4237L114.468 45.4069L113.558 44.6364ZM106.545 44.9576L105.71 45.808L105.725 45.8235L105.742 45.8384L106.545 44.9576ZM104.915 39.3796L104.111 40.2604L104.16 40.3049L104.213 40.3438L104.915 39.3796ZM96.0724 39.7846L95.2857 38.8887L95.2361 38.9322L95.1916 38.981L96.0724 39.7846ZM97.0255 60.5947L96.2219 61.4754L96.2707 61.52L96.3241 61.5588L97.0255 60.5947ZM105.868 60.1897L105.081 59.2937L105.032 59.3373L104.987 59.386L105.868 60.1897ZM106.989 54.6385L107.869 55.4421L107.884 55.4258L107.899 55.4089L106.989 54.6385ZM114.002 54.3172L113.166 55.1677L113.182 55.1831L113.198 55.198L114.002 54.3172ZM114.088 60.577C114.183 62.6521 113.547 64.4139 112.162 65.9323L113.923 67.5395C115.738 65.5502 116.594 63.1698 116.47 60.4679L114.088 60.577ZM112.162 65.9323C110.827 67.395 109.182 68.1636 107.154 68.2564L107.263 70.6385C109.911 70.5173 112.155 69.4781 113.923 67.5395L112.162 65.9323ZM107.154 68.2564L96.5584 68.7417L96.6676 71.1239L107.263 70.6385L107.154 68.2564ZM96.5584 68.7417C94.5301 68.8347 92.7885 68.2202 91.2693 66.8763L89.6893 68.6624C91.6731 70.4172 94.0206 71.2451 96.6676 71.1239L96.5584 68.7417ZM91.2829 66.8886C89.7646 65.5032 88.9706 63.8069 88.8756 61.7318L86.4935 61.8409C86.6172 64.5428 87.6864 66.8351 89.6757 68.6501L91.2829 66.8886ZM88.8756 61.7318L87.8491 39.321L85.467 39.4301L86.4935 61.8409L88.8756 61.7318ZM87.8491 39.321C87.7861 37.9473 88.0603 36.7235 88.6553 35.6205L86.5565 34.4885C85.7433 35.9962 85.3856 37.6531 85.467 39.4301L87.8491 39.321ZM88.6489 35.6322C89.3133 34.4328 90.1789 33.4889 91.2476 32.7793L89.9285 30.7928C88.5261 31.724 87.4036 32.9591 86.5629 34.4767L88.6489 35.6322ZM91.2476 32.7793C92.2917 32.086 93.4853 31.7011 94.859 31.6381L94.7499 29.256C92.9729 29.3374 91.3556 29.8451 89.9285 30.7928L91.2476 32.7793ZM94.859 31.6381L105.455 31.1528L105.345 28.7707L94.7499 29.256L94.859 31.6381ZM105.455 31.1528C106.828 31.0899 108.052 31.3641 109.155 31.959L110.287 29.8603C108.779 29.0471 107.122 28.6893 105.345 28.7707L105.455 31.1528ZM109.155 31.959C110.277 32.564 111.192 33.4168 111.909 34.5378L113.918 33.2529C112.989 31.8011 111.776 30.6635 110.287 29.8603L109.155 31.959ZM111.92 34.5549C112.613 35.5989 112.998 36.7925 113.061 38.1662L115.443 38.0571C115.362 36.2801 114.854 34.6628 113.907 33.2358L111.92 34.5549ZM113.061 38.1662L113.243 42.13L115.625 42.0209L115.443 38.0571L113.061 38.1662ZM113.243 42.13C113.273 42.7931 113.083 43.3525 112.648 43.8659L114.468 45.4069C115.289 44.4369 115.683 43.289 115.625 42.0209L113.243 42.13ZM112.677 43.8328C112.268 44.2815 111.771 44.5177 111.11 44.548L111.219 46.9301C112.488 46.872 113.588 46.3731 114.439 45.44L112.677 43.8328ZM111.11 44.548L108.975 44.6458L109.084 47.0279L111.219 46.9301L111.11 44.548ZM108.975 44.6458C108.314 44.6761 107.798 44.4862 107.349 44.0768L105.742 45.8384C106.675 46.6897 107.815 47.086 109.084 47.0279L108.975 44.6458ZM107.381 44.1072C106.901 43.6356 106.66 43.096 106.63 42.4329L104.248 42.542C104.306 43.8101 104.803 44.9172 105.71 45.808L107.381 44.1072ZM106.63 42.4329L106.522 40.0699L104.14 40.179L104.248 42.542L106.63 42.4329ZM106.522 40.0699C106.49 39.3761 106.15 38.8037 105.616 38.4155L104.213 40.3438C104.226 40.3528 104.202 40.3379 104.175 40.291C104.148 40.2418 104.141 40.1976 104.14 40.179L106.522 40.0699ZM105.718 38.4989C105.306 38.1223 104.773 37.887 104.16 37.9151L104.269 40.2972C104.232 40.2989 104.188 40.2924 104.146 40.2763C104.108 40.2614 104.097 40.2476 104.111 40.2604L105.718 38.4989ZM104.16 37.9151L96.7661 38.2538L96.8752 40.6359L104.269 40.2972L104.16 37.9151ZM96.7661 38.2538C96.1735 38.2809 95.676 38.546 95.2857 38.8887L96.859 40.6806C96.8839 40.6587 96.9032 40.6445 96.9164 40.6358C96.9295 40.627 96.9361 40.6241 96.936 40.6241C96.9358 40.6242 96.9296 40.6269 96.9181 40.6298C96.9063 40.6327 96.8917 40.6351 96.8752 40.6359L96.7661 38.2538ZM95.1916 38.981C94.7706 39.4425 94.5839 40.0159 94.6113 40.6154L96.9934 40.5063C96.9926 40.4881 96.9957 40.5005 96.9855 40.5298C96.9808 40.5434 96.9746 40.5565 96.9677 40.568C96.9608 40.5794 96.9552 40.5861 96.9531 40.5883L95.1916 38.981ZM94.6113 40.6154L95.4982 59.9771L97.8803 59.868L96.9934 40.5063L94.6113 40.6154ZM95.4982 59.9771C95.5262 60.5896 95.8092 61.0989 96.2219 61.4754L97.8292 59.7139C97.8151 59.7011 97.8298 59.7108 97.8483 59.7476C97.868 59.7871 97.8786 59.8311 97.8803 59.868L95.4982 59.9771ZM96.3241 61.5588C96.7441 61.8643 97.2637 62.0829 97.8563 62.0557L97.7472 59.6736C97.7637 59.6729 97.7785 59.6739 97.7904 59.6757C97.8022 59.6775 97.8086 59.6797 97.8088 59.6798C97.8089 59.6798 97.8021 59.6774 97.7882 59.67C97.7743 59.6624 97.7538 59.65 97.727 59.6305L96.3241 61.5588ZM97.8563 62.0557L105.25 61.717L105.141 59.3349L97.7472 59.6736L97.8563 62.0557ZM105.25 61.717C105.863 61.689 106.372 61.406 106.749 60.9933L104.987 59.386C104.974 59.4001 104.984 59.3854 105.021 59.3669C105.06 59.3472 105.104 59.3366 105.141 59.3349L105.25 61.717ZM106.655 61.0856C107.088 60.7047 107.441 60.1451 107.409 59.4316L105.027 59.5407C105.023 59.4592 105.042 59.3805 105.071 59.3219C105.097 59.2709 105.115 59.2644 105.081 59.2937L106.655 61.0856ZM107.409 59.4316L107.3 57.0686L104.918 57.1777L105.027 59.5407L107.409 59.4316ZM107.3 57.0686C107.27 56.4071 107.46 55.8908 107.869 55.4421L106.108 53.8348C105.256 54.7679 104.86 55.9081 104.918 57.1777L107.3 57.0686ZM107.899 55.4089C108.314 54.9186 108.801 54.6796 109.434 54.6506L109.324 52.2685C108.026 52.328 106.92 52.8748 106.079 53.868L107.899 55.4089ZM109.434 54.6506L111.568 54.5528L111.459 52.1707L109.324 52.2685L109.434 54.6506ZM111.568 54.5528C112.2 54.5239 112.708 54.7174 113.166 55.1677L114.837 53.4668C113.909 52.5547 112.758 52.1112 111.459 52.1707L111.568 54.5528ZM113.198 55.198C113.647 55.6074 113.883 56.1042 113.913 56.7657L116.295 56.6566C116.237 55.387 115.738 54.2878 114.805 53.4365L113.198 55.198ZM113.913 56.7657L114.088 60.577L116.47 60.4679L116.295 56.6566L113.913 56.7657Z" fill="#8A8A8A" fill-opacity="0.25" mask="url(#path-7-outside-4_39_2)"/>
<mask id="path-9-outside-5_39_2" maskUnits="userSpaceOnUse" x="115.6" y="21.0548" width="33.4841" height="56.3608" fill="black">
<rect fill="white" x="115.6" y="21.0548" width="33.4841" height="56.3608"/>
<path d="M147.267 71.9395C146.773 73.3881 145.764 74.1472 144.24 74.2171L141.419 74.3462C140.403 74.3928 139.496 74.0524 138.699 73.325L129.33 63.9002C129.274 63.8009 129.146 63.7813 128.945 63.8414C128.795 63.8992 128.725 64.0298 128.734 64.2331L129.062 71.3984C129.106 72.364 128.789 73.2188 128.11 73.9628C127.48 74.6537 126.682 75.0213 125.716 75.0655L123.582 75.1632C122.616 75.2075 121.763 74.9155 121.021 74.2875C120.328 73.6063 119.959 72.7829 119.915 71.8174L117.876 27.3007C117.829 26.2843 118.121 25.4307 118.752 24.7398C119.433 24.0466 120.256 23.6778 121.222 23.6336L123.356 23.5359C124.322 23.4916 125.15 23.7847 125.841 24.4151C126.583 25.0431 126.977 25.8653 127.023 26.8817L127.907 46.1672C127.914 46.3197 127.996 46.4432 128.153 46.5379C128.358 46.5794 128.483 46.5227 128.527 46.3679L136.205 37.2317C136.831 36.4392 137.652 36.0196 138.669 35.9731L141.489 35.8439C142.963 35.7764 144.062 36.439 144.788 37.8316C145.07 38.4298 145.177 39.087 145.108 39.8031C145.036 40.4684 144.782 41.0402 144.346 41.5185L133.852 54.2211C133.658 54.4337 133.568 54.6924 133.582 54.9973C133.593 55.2514 133.704 55.45 133.915 55.5932L146.486 68.2323C146.967 68.7196 147.274 69.3166 147.409 70.0234C147.591 70.677 147.544 71.3158 147.267 71.9395Z"/>
</mask>
<path d="M147.267 71.9395C146.773 73.3881 145.764 74.1472 144.24 74.2171L141.419 74.3462C140.403 74.3928 139.496 74.0524 138.699 73.325L129.33 63.9002C129.274 63.8009 129.146 63.7813 128.945 63.8414C128.795 63.8992 128.725 64.0298 128.734 64.2331L129.062 71.3984C129.106 72.364 128.789 73.2188 128.11 73.9628C127.48 74.6537 126.682 75.0213 125.716 75.0655L123.582 75.1632C122.616 75.2075 121.763 74.9155 121.021 74.2875C120.328 73.6063 119.959 72.7829 119.915 71.8174L117.876 27.3007C117.829 26.2843 118.121 25.4307 118.752 24.7398C119.433 24.0466 120.256 23.6778 121.222 23.6336L123.356 23.5359C124.322 23.4916 125.15 23.7847 125.841 24.4151C126.583 25.0431 126.977 25.8653 127.023 26.8817L127.907 46.1672C127.914 46.3197 127.996 46.4432 128.153 46.5379C128.358 46.5794 128.483 46.5227 128.527 46.3679L136.205 37.2317C136.831 36.4392 137.652 36.0196 138.669 35.9731L141.489 35.8439C142.963 35.7764 144.062 36.439 144.788 37.8316C145.07 38.4298 145.177 39.087 145.108 39.8031C145.036 40.4684 144.782 41.0402 144.346 41.5185L133.852 54.2211C133.658 54.4337 133.568 54.6924 133.582 54.9973C133.593 55.2514 133.704 55.45 133.915 55.5932L146.486 68.2323C146.967 68.7196 147.274 69.3166 147.409 70.0234C147.591 70.677 147.544 71.3158 147.267 71.9395Z" fill="#EF4444"/>
<path d="M147.267 71.9395L146.177 71.4557L146.156 71.5044L146.139 71.5548L147.267 71.9395ZM138.699 73.325L137.853 74.1656L137.874 74.1862L137.895 74.2058L138.699 73.325ZM129.33 63.9002L128.289 64.4817L128.369 64.6246L128.484 64.7408L129.33 63.9002ZM128.945 63.8414L128.603 62.6992L128.56 62.7123L128.517 62.7288L128.945 63.8414ZM128.11 73.9628L128.991 74.7664L128.991 74.7664L128.11 73.9628ZM121.021 74.2875L120.185 75.1379L120.217 75.1689L120.251 75.1974L121.021 74.2875ZM118.752 24.7398L117.901 23.9041L117.886 23.9199L117.871 23.9362L118.752 24.7398ZM125.841 24.4151L125.037 25.2959L125.053 25.3107L125.07 25.325L125.841 24.4151ZM128.153 46.5379L127.537 47.5591L127.714 47.6657L127.917 47.7066L128.153 46.5379ZM128.527 46.3679L127.614 45.6008L127.449 45.7968L127.38 46.0431L128.527 46.3679ZM136.205 37.2317L137.118 37.9988L137.13 37.9849L137.141 37.9706L136.205 37.2317ZM144.788 37.8316L145.867 37.3232L145.857 37.3017L145.846 37.2806L144.788 37.8316ZM145.108 39.8031L146.293 39.9303L146.294 39.9175L145.108 39.8031ZM144.346 41.5185L143.465 40.7148L143.445 40.7365L143.427 40.7591L144.346 41.5185ZM133.852 54.2211L134.732 55.0247L134.752 55.0031L134.771 54.9805L133.852 54.2211ZM133.915 55.5932L134.76 54.7524L134.68 54.6717L134.586 54.6076L133.915 55.5932ZM146.486 68.2323L147.335 67.395L147.332 67.3915L146.486 68.2323ZM147.409 70.0234L146.237 70.2458L146.247 70.2956L146.26 70.3444L147.409 70.0234ZM146.139 71.5548C145.952 72.1013 145.699 72.4347 145.423 72.6425C145.147 72.8501 144.758 72.9997 144.185 73.026L144.294 75.4081C145.245 75.3645 146.123 75.0997 146.857 74.5481C147.59 73.9967 148.088 73.2263 148.396 72.3243L146.139 71.5548ZM144.185 73.026L141.365 73.1552L141.474 75.5373L144.294 75.4081L144.185 73.026ZM141.365 73.1552C140.685 73.1863 140.082 72.9728 139.502 72.4443L137.895 74.2058C138.91 75.1319 140.121 75.5993 141.474 75.5373L141.365 73.1552ZM139.544 72.4845L130.175 63.0596L128.484 64.7408L137.853 74.1656L139.544 72.4845ZM130.371 63.3188C130.137 62.9 129.742 62.689 129.372 62.6324C129.058 62.5845 128.781 62.6462 128.603 62.6992L129.287 64.9837C129.287 64.9837 129.286 64.984 129.284 64.9846C129.281 64.9852 129.278 64.9861 129.273 64.9871C129.264 64.9891 129.249 64.9921 129.228 64.9947C129.189 64.9994 129.113 65.0051 129.012 64.9897C128.908 64.9737 128.769 64.9338 128.627 64.8416C128.48 64.7465 128.366 64.6196 128.289 64.4817L130.371 63.3188ZM128.517 62.7288C128.2 62.8506 127.913 63.079 127.73 63.4167C127.561 63.7302 127.532 64.0472 127.543 64.2876L129.925 64.1785C129.927 64.2156 129.928 64.3657 129.829 64.5487C129.717 64.7559 129.54 64.8901 129.374 64.9541L128.517 62.7288ZM127.543 64.2876L127.871 71.453L130.253 71.3439L129.925 64.1785L127.543 64.2876ZM127.871 71.453C127.9 72.0881 127.705 72.6378 127.229 73.1592L128.991 74.7664C129.873 73.7997 130.313 72.6398 130.253 71.3439L127.871 71.453ZM127.229 73.1592C126.82 73.6079 126.323 73.8441 125.662 73.8744L125.771 76.2565C127.041 76.1984 128.14 75.6995 128.991 74.7664L127.229 73.1592ZM125.662 73.8744L123.527 73.9722L123.637 76.3543L125.771 76.2565L125.662 73.8744ZM123.527 73.9722C122.864 74.0026 122.305 73.8124 121.792 73.3776L120.251 75.1974C121.221 76.0187 122.369 76.4124 123.637 76.3543L123.527 73.9722ZM121.857 73.4371C121.377 72.9655 121.136 72.4259 121.106 71.7628L118.724 71.8719C118.782 73.14 119.279 74.2471 120.185 75.1379L121.857 73.4371ZM121.106 71.7628L119.067 27.2461L116.685 27.3552L118.724 71.8719L121.106 71.7628ZM119.067 27.2461C119.033 26.5151 119.235 25.979 119.632 25.5434L117.871 23.9362C117.008 24.8823 116.625 26.0536 116.685 27.3552L119.067 27.2461ZM119.602 25.5755C120.074 25.0956 120.613 24.855 121.276 24.8247L121.167 22.4426C119.899 22.5006 118.792 22.9976 117.901 23.9041L119.602 25.5755ZM121.276 24.8247L123.411 24.7269L123.302 22.3448L121.167 22.4426L121.276 24.8247ZM123.411 24.7269C124.072 24.6966 124.588 24.8865 125.037 25.2959L126.644 23.5343C125.711 22.683 124.571 22.2867 123.302 22.3448L123.411 24.7269ZM125.07 25.325C125.546 25.7277 125.8 26.2336 125.832 26.9363L128.214 26.8271C128.153 25.4971 127.619 24.3585 126.611 23.5052L125.07 25.325ZM125.832 26.9363L126.715 46.2218L129.098 46.1126L128.214 26.8271L125.832 26.9363ZM126.715 46.2218C126.745 46.8567 127.118 47.3064 127.537 47.5591L128.768 45.5166C128.806 45.5393 128.89 45.5988 128.967 45.7146C129.049 45.8383 129.091 45.9796 129.098 46.1126L126.715 46.2218ZM127.917 47.7066C128.143 47.7522 128.511 47.7859 128.893 47.6121C129.332 47.4129 129.575 47.0425 129.674 46.6928L127.38 46.0431C127.435 45.8482 127.594 45.5835 127.907 45.4409C128.165 45.3237 128.368 45.365 128.389 45.3691L127.917 47.7066ZM129.44 47.1351L137.118 37.9988L135.293 36.4646L127.614 45.6008L129.44 47.1351ZM137.141 37.9706C137.551 37.4518 138.049 37.195 138.723 37.1641L138.614 34.782C137.255 34.8443 136.111 35.4266 135.27 36.4929L137.141 37.9706ZM138.723 37.1641L141.543 37.035L141.434 34.6529L138.614 34.782L138.723 37.1641ZM141.543 37.035C142.081 37.0103 142.484 37.119 142.804 37.3115C143.128 37.5068 143.447 37.8374 143.731 38.3827L145.846 37.2806C145.404 36.4332 144.81 35.7362 144.034 35.2689C143.254 34.7988 142.37 34.61 141.434 34.6529L141.543 37.035ZM143.71 38.3401C143.892 38.7273 143.971 39.1667 143.921 39.6886L146.294 39.9175C146.382 39.0072 146.248 38.1323 145.867 37.3232L143.71 38.3401ZM143.922 39.6759C143.877 40.098 143.725 40.4305 143.465 40.7148L145.227 42.3221C145.84 41.6499 146.196 40.8387 146.293 39.9303L143.922 39.6759ZM143.427 40.7591L132.933 53.4617L134.771 54.9805L145.265 42.2779L143.427 40.7591ZM132.971 53.4175C132.55 53.8789 132.363 54.4524 132.391 55.0519L134.773 54.9428C134.772 54.9246 134.775 54.9369 134.765 54.9663C134.76 54.9799 134.754 54.993 134.747 55.0045C134.74 55.0158 134.734 55.0225 134.732 55.0247L132.971 53.4175ZM132.391 55.0519C132.419 55.6809 132.723 56.2244 133.244 56.5788L134.586 54.6076C134.615 54.6278 134.67 54.6749 134.715 54.7554C134.76 54.8359 134.771 54.907 134.773 54.9428L132.391 55.0519ZM133.069 56.434L145.641 69.0732L147.332 67.3915L134.76 54.7524L133.069 56.434ZM145.637 69.0697C145.943 69.3796 146.145 69.7589 146.237 70.2458L148.58 69.8009C148.404 68.8743 147.991 68.0595 147.335 67.395L145.637 69.0697ZM146.26 70.3444C146.368 70.7295 146.343 71.0837 146.177 71.4557L148.357 72.4234C148.746 71.5479 148.815 70.6246 148.557 69.7024L146.26 70.3444Z" fill="#8A8A8A" fill-opacity="0.25" mask="url(#path-9-outside-5_39_2)"/>
<mask id="path-11-outside-6_39_2" maskUnits="userSpaceOnUse" x="153.759" y="16.0137" width="37.1227" height="52.4327" fill="black">
<rect fill="white" x="153.759" y="16.0137" width="37.1227" height="52.4327"/>
<path d="M187.178 57.1246C187.107 58.8042 186.622 60.3261 185.723 61.6903C184.824 63.0545 183.657 64.1269 182.222 64.9076C180.786 65.6882 179.229 66.043 177.549 65.972L158.863 65.1821C157.977 65.1447 157.22 64.8089 156.592 64.1747C156.013 63.4959 155.743 62.7132 155.78 61.8268L157.508 20.9557C157.547 20.0225 157.883 19.2655 158.515 18.6846C159.194 18.1057 159.977 17.835 160.863 17.8725L179.549 18.6624C181.229 18.7334 182.751 19.2183 184.115 20.1173C185.479 21.0163 186.552 22.1834 187.332 23.6186C188.113 25.0538 188.467 26.6345 188.394 28.3608L187.178 57.1246ZM178.85 56.7725L180.066 28.0088C180.093 27.3556 179.804 27.0162 179.197 26.9905L166.6 26.458C165.993 26.4324 165.677 26.7228 165.652 27.3294L164.43 56.2331C164.404 56.8396 164.695 57.1557 165.301 57.1813L177.898 57.7138C178.132 57.7237 178.346 57.6393 178.54 57.4605C178.737 57.2351 178.84 57.0058 178.85 56.7725Z"/>
</mask>
<path d="M187.178 57.1246C187.107 58.8042 186.622 60.3261 185.723 61.6903C184.824 63.0545 183.657 64.1269 182.222 64.9076C180.786 65.6882 179.229 66.043 177.549 65.972L158.863 65.1821C157.977 65.1447 157.22 64.8089 156.592 64.1747C156.013 63.4959 155.743 62.7132 155.78 61.8268L157.508 20.9557C157.547 20.0225 157.883 19.2655 158.515 18.6846C159.194 18.1057 159.977 17.835 160.863 17.8725L179.549 18.6624C181.229 18.7334 182.751 19.2183 184.115 20.1173C185.479 21.0163 186.552 22.1834 187.332 23.6186C188.113 25.0538 188.467 26.6345 188.394 28.3608L187.178 57.1246ZM178.85 56.7725L180.066 28.0088C180.093 27.3556 179.804 27.0162 179.197 26.9905L166.6 26.458C165.993 26.4324 165.677 26.7228 165.652 27.3294L164.43 56.2331C164.404 56.8396 164.695 57.1557 165.301 57.1813L177.898 57.7138C178.132 57.7237 178.346 57.6393 178.54 57.4605C178.737 57.2351 178.84 57.0058 178.85 56.7725Z" fill="#6730B5"/>
<path d="M185.723 61.6903L184.809 61.0881L184.809 61.0881L185.723 61.6903ZM156.592 64.1747L155.76 64.8849L155.786 64.9158L155.814 64.9446L156.592 64.1747ZM158.515 18.6846L157.805 17.8519L157.79 17.865L157.775 17.8787L158.515 18.6846ZM187.332 23.6186L186.371 24.1416L186.371 24.1416L187.332 23.6186ZM178.54 57.4605L179.281 58.2664L179.325 58.2254L179.365 58.1797L178.54 57.4605ZM186.084 57.0783C186.021 58.5658 185.595 59.8945 184.809 61.0881L186.637 62.2926C187.648 60.7578 188.192 59.0426 188.271 57.1708L186.084 57.0783ZM184.809 61.0881C184.009 62.3022 182.976 63.2513 181.699 63.9461L182.745 65.869C184.338 65.0025 185.639 63.8068 186.637 62.2926L184.809 61.0881ZM181.699 63.9461C180.443 64.6291 179.083 64.9414 177.596 64.8785L177.503 67.0656C179.375 67.1447 181.13 66.7473 182.745 65.869L181.699 63.9461ZM177.596 64.8785L158.91 64.0886L158.817 66.2757L177.503 67.0656L177.596 64.8785ZM158.91 64.0886C158.301 64.0629 157.805 63.8438 157.37 63.4049L155.814 64.9446C156.635 65.7739 157.653 66.2264 158.817 66.2757L158.91 64.0886ZM157.425 63.4645C157.024 62.9946 156.848 62.4818 156.874 61.873L154.687 61.7805C154.637 62.9447 155.002 63.9972 155.76 64.8849L157.425 63.4645ZM156.874 61.873L158.601 21.0019L156.414 20.9094L154.687 61.7805L156.874 61.873ZM158.601 21.0019C158.63 20.3307 158.857 19.8568 159.256 19.4906L157.775 17.8787C156.909 18.6743 156.465 19.7144 156.414 20.9094L158.601 21.0019ZM159.226 19.5174C159.695 19.1166 160.208 18.9402 160.817 18.966L160.909 16.7789C159.745 16.7297 158.693 17.0948 157.805 17.8519L159.226 19.5174ZM160.817 18.966L179.503 19.7559L179.595 17.5688L160.909 16.7789L160.817 18.966ZM179.503 19.7559C180.99 19.8187 182.319 20.2447 183.513 21.0312L184.717 19.2034C183.182 18.192 181.467 17.648 179.595 17.5688L179.503 19.7559ZM183.513 21.0312C184.727 21.8314 185.676 22.8642 186.371 24.1416L188.294 23.0956C187.427 21.5026 186.231 20.2013 184.717 19.2034L183.513 21.0312ZM186.371 24.1416C187.051 25.3923 187.365 26.7746 187.3 28.3146L189.487 28.4071C189.568 26.4945 189.175 24.7153 188.294 23.0956L186.371 24.1416ZM187.3 28.3146L186.084 57.0783L188.271 57.1708L189.487 28.4071L187.3 28.3146ZM179.943 56.8187L181.159 28.055L178.972 27.9626L177.756 56.7263L179.943 56.8187ZM181.159 28.055C181.179 27.5792 181.094 27.0139 180.702 26.5541C180.296 26.0784 179.737 25.9179 179.243 25.897L179.151 28.0841C179.207 28.0864 179.21 28.0945 179.18 28.0822C179.143 28.0674 179.087 28.034 179.036 27.9745C178.987 27.9169 178.971 27.8677 178.968 27.8569C178.967 27.8505 178.975 27.8804 178.972 27.9626L181.159 28.055ZM179.243 25.897L166.646 25.3645L166.554 27.5515L179.151 28.0841L179.243 25.897ZM166.646 25.3645C166.174 25.3446 165.615 25.4398 165.167 25.8507C164.72 26.2616 164.578 26.8113 164.558 27.2831L166.745 27.3756C166.748 27.3118 166.757 27.3009 166.748 27.3234C166.738 27.3511 166.709 27.4072 166.648 27.4625C166.588 27.5179 166.53 27.5419 166.501 27.5501C166.478 27.5567 166.49 27.5488 166.554 27.5515L166.646 25.3645ZM164.558 27.2831L163.336 56.1868L165.523 56.2793L166.745 27.3756L164.558 27.2831ZM163.336 56.1868C163.316 56.6587 163.412 57.2184 163.822 57.6656C164.233 58.1127 164.783 58.2549 165.255 58.2748L165.347 56.0878C165.284 56.0851 165.273 56.0763 165.295 56.0849C165.323 56.0954 165.379 56.1243 165.434 56.1845C165.49 56.2447 165.514 56.3031 165.522 56.3316C165.528 56.3547 165.521 56.3431 165.523 56.2793L163.336 56.1868ZM165.255 58.2748L177.852 58.8074L177.945 56.6203L165.347 56.0878L165.255 58.2748ZM177.852 58.8074C178.415 58.8311 178.903 58.6135 179.281 58.2664L177.8 56.6546C177.787 56.6664 177.797 56.6537 177.832 56.6399C177.87 56.625 177.911 56.6189 177.945 56.6203L177.852 58.8074ZM179.365 58.1797C179.678 57.8204 179.92 57.3629 179.943 56.8187L177.756 56.7263C177.757 56.7112 177.759 56.6978 177.762 56.687C177.764 56.6763 177.767 56.6707 177.767 56.6704C177.767 56.6704 177.764 56.6764 177.756 56.6885C177.748 56.7007 177.735 56.7184 177.715 56.7413L179.365 58.1797Z" fill="#8A8A8A" fill-opacity="0.25" mask="url(#path-11-outside-6_39_2)"/>
<mask id="path-13-outside-7_39_2" maskUnits="userSpaceOnUse" x="188.488" y="34.2822" width="24.7775" height="40.4616" fill="black">
<rect fill="white" x="188.488" y="34.2822" width="24.7775" height="40.4616"/>
<path d="M211.737 41.6219C211.719 42.509 211.401 43.2501 210.782 43.8452C210.163 44.4403 209.41 44.7291 208.523 44.7118L200.189 44.5488C199.582 44.5369 199.273 44.8578 199.26 45.5115L198.795 69.253C198.778 70.14 198.436 70.904 197.77 71.5449C197.151 72.14 196.398 72.4289 195.511 72.4115L193.55 72.3732C192.663 72.3558 191.922 72.0377 191.327 71.4189C190.733 70.7534 190.444 69.9771 190.461 69.09L190.954 43.8778C190.983 42.4304 191.359 41.13 192.082 39.9764C192.806 38.7762 193.758 37.8373 194.939 37.1598C196.12 36.4823 197.434 36.1577 198.882 36.186L208.686 36.3777C209.573 36.3951 210.314 36.7365 210.908 37.402C211.503 38.0209 211.792 38.7972 211.774 39.731L211.737 41.6219Z"/>
</mask>
<path d="M211.737 41.6219C211.719 42.509 211.401 43.2501 210.782 43.8452C210.163 44.4403 209.41 44.7291 208.523 44.7118L200.189 44.5488C199.582 44.5369 199.273 44.8578 199.26 45.5115L198.795 69.253C198.778 70.14 198.436 70.904 197.77 71.5449C197.151 72.14 196.398 72.4289 195.511 72.4115L193.55 72.3732C192.663 72.3558 191.922 72.0377 191.327 71.4189C190.733 70.7534 190.444 69.9771 190.461 69.09L190.954 43.8778C190.983 42.4304 191.359 41.13 192.082 39.9764C192.806 38.7762 193.758 37.8373 194.939 37.1598C196.12 36.4823 197.434 36.1577 198.882 36.186L208.686 36.3777C209.573 36.3951 210.314 36.7365 210.908 37.402C211.503 38.0209 211.792 38.7972 211.774 39.731L211.737 41.6219Z" fill="#6730B5"/>
<path d="M210.782 43.8452L210.024 43.0563L210.024 43.0563L210.782 43.8452ZM197.77 71.5449L198.528 72.3338L198.528 72.3338L197.77 71.5449ZM191.327 71.4189L190.51 72.1478L190.524 72.1629L190.538 72.1775L191.327 71.4189ZM192.082 39.9764L193.009 40.5578L193.014 40.5498L193.019 40.5418L192.082 39.9764ZM194.939 37.1598L194.395 36.2105L194.395 36.2105L194.939 37.1598ZM210.908 37.402L210.092 38.131L210.105 38.1461L210.119 38.1607L210.908 37.402ZM210.642 41.6005C210.63 42.2082 210.426 42.6698 210.024 43.0563L211.541 44.6341C212.377 43.8304 212.808 42.8097 212.831 41.6433L210.642 41.6005ZM210.024 43.0563C209.622 43.4427 209.153 43.6294 208.545 43.6175L208.502 45.8061C209.668 45.8289 210.705 45.4378 211.541 44.6341L210.024 43.0563ZM208.545 43.6175L200.211 43.4545L200.168 45.6431L208.502 45.8061L208.545 43.6175ZM200.211 43.4545C199.717 43.4449 199.149 43.5706 198.714 44.0203C198.295 44.455 198.175 45.0139 198.165 45.4901L200.354 45.5329C200.356 45.4507 200.366 45.4213 200.364 45.4276C200.361 45.4382 200.342 45.4864 200.289 45.5409C200.235 45.5971 200.176 45.627 200.139 45.6395C200.109 45.6499 200.111 45.642 200.168 45.6431L200.211 43.4545ZM198.165 45.4901L197.701 69.2316L199.89 69.2744L200.354 45.5329L198.165 45.4901ZM197.701 69.2316C197.69 69.8151 197.478 70.3069 197.011 70.756L198.528 72.3338C199.394 71.5012 199.866 70.465 199.89 69.2744L197.701 69.2316ZM197.011 70.756C196.609 71.1425 196.14 71.3291 195.532 71.3172L195.49 73.5058C196.656 73.5286 197.693 73.1375 198.528 72.3338L197.011 70.756ZM195.532 71.3172L193.571 71.2789L193.529 73.4674L195.49 73.5058L195.532 71.3172ZM193.571 71.2789C192.964 71.267 192.502 71.0622 192.116 70.6603L190.538 72.1775C191.342 73.0133 192.362 73.4446 193.529 73.4674L193.571 71.2789ZM192.143 70.69C191.732 70.2293 191.544 69.7206 191.556 69.1114L189.367 69.0686C189.344 70.2336 189.733 71.2775 190.51 72.1478L192.143 70.69ZM191.556 69.1114L192.049 43.8992L189.86 43.8564L189.367 69.0686L191.556 69.1114ZM192.049 43.8992C192.073 42.6371 192.398 41.5325 193.009 40.5578L191.154 39.3951C190.319 40.7274 189.892 42.2238 189.86 43.8564L192.049 43.8992ZM193.019 40.5418C193.65 39.4959 194.469 38.6913 195.484 38.1092L194.395 36.2105C193.047 36.9834 191.962 38.0565 191.145 39.4111L193.019 40.5418ZM195.484 38.1092C196.482 37.5367 197.598 37.2556 198.86 37.2803L198.903 35.0917C197.27 35.0598 195.759 35.428 194.395 36.2105L195.484 38.1092ZM198.86 37.2803L208.665 37.472L208.708 35.2835L198.903 35.0917L198.86 37.2803ZM208.665 37.472C209.246 37.4834 209.699 37.691 210.092 38.131L211.725 36.6731C210.929 35.782 209.901 35.3068 208.708 35.2835L208.665 37.472ZM210.119 38.1607C210.495 38.5509 210.692 39.0379 210.679 39.7096L212.868 39.7524C212.891 38.5565 212.512 37.4909 211.697 36.6434L210.119 38.1607ZM210.679 39.7096L210.642 41.6005L212.831 41.6433L212.868 39.7524L210.679 39.7096Z" fill="#8A8A8A" fill-opacity="0.25" mask="url(#path-13-outside-7_39_2)"/>
<mask id="path-15-outside-8_39_2" maskUnits="userSpaceOnUse" x="208.311" y="31.041" width="30.2063" height="40.8657" fill="black">
<rect fill="white" x="208.311" y="31.041" width="30.2063" height="40.8657"/>
<path d="M236.377 61.2378C236.444 63.4316 235.73 65.3222 234.237 66.9095C232.789 68.4487 230.991 69.2511 228.844 69.3166L219.112 69.6135C216.965 69.679 215.099 68.9884 213.513 67.5418C211.925 66.0484 211.098 64.2049 211.031 62.0111L210.799 54.3795C210.754 52.9325 211.065 51.6382 211.731 50.4966C212.443 49.3069 213.371 48.3442 214.516 47.6085C215.662 46.8727 216.958 46.4828 218.405 46.4386L226.667 46.1866C226.9 46.1795 227.108 46.0797 227.289 45.8873C227.516 45.6935 227.626 45.4565 227.617 45.1765L227.532 42.3759C227.523 42.0958 227.399 41.866 227.16 41.6864C226.968 41.5054 226.755 41.4185 226.522 41.4256L218.26 41.6776C217.373 41.7047 216.594 41.4248 215.922 40.8379C215.296 40.2496 214.97 39.5121 214.943 38.6252L214.886 36.7348C214.857 35.8013 215.137 35.0219 215.725 34.3966C216.359 33.7232 217.119 33.3729 218.006 33.3459L227.738 33.049C229.185 33.0048 230.502 33.315 231.691 33.9796C232.879 34.6441 233.842 35.5725 234.579 36.7647C235.315 37.9103 235.705 39.2065 235.749 40.6535L236.377 61.2378ZM228.074 60.1596L227.927 55.3286C227.92 55.0952 227.797 54.8887 227.558 54.7091C227.365 54.5281 227.152 54.4412 226.919 54.4483L220.128 54.6555C219.894 54.6626 219.664 54.7631 219.436 54.9569C219.255 55.1493 219.168 55.3622 219.175 55.5956L219.323 60.4266C219.33 60.66 219.429 60.8672 219.622 61.0482C219.861 61.2278 220.097 61.314 220.331 61.3069L227.122 61.0997C227.355 61.0926 227.563 60.9928 227.744 60.8004C227.971 60.6066 228.082 60.393 228.074 60.1596Z"/>
</mask>
<path d="M236.377 61.2378C236.444 63.4316 235.73 65.3222 234.237 66.9095C232.789 68.4487 230.991 69.2511 228.844 69.3166L219.112 69.6135C216.965 69.679 215.099 68.9884 213.513 67.5418C211.925 66.0484 211.098 64.2049 211.031 62.0111L210.799 54.3795C210.754 52.9325 211.065 51.6382 211.731 50.4966C212.443 49.3069 213.371 48.3442 214.516 47.6085C215.662 46.8727 216.958 46.4828 218.405 46.4386L226.667 46.1866C226.9 46.1795 227.108 46.0797 227.289 45.8873C227.516 45.6935 227.626 45.4565 227.617 45.1765L227.532 42.3759C227.523 42.0958 227.399 41.866 227.16 41.6864C226.968 41.5054 226.755 41.4185 226.522 41.4256L218.26 41.6776C217.373 41.7047 216.594 41.4248 215.922 40.8379C215.296 40.2496 214.97 39.5121 214.943 38.6252L214.886 36.7348C214.857 35.8013 215.137 35.0219 215.725 34.3966C216.359 33.7232 217.119 33.3729 218.006 33.3459L227.738 33.049C229.185 33.0048 230.502 33.315 231.691 33.9796C232.879 34.6441 233.842 35.5725 234.579 36.7647C235.315 37.9103 235.705 39.2065 235.749 40.6535L236.377 61.2378ZM228.074 60.1596L227.927 55.3286C227.92 55.0952 227.797 54.8887 227.558 54.7091C227.365 54.5281 227.152 54.4412 226.919 54.4483L220.128 54.6555C219.894 54.6626 219.664 54.7631 219.436 54.9569C219.255 55.1493 219.168 55.3622 219.175 55.5956L219.323 60.4266C219.33 60.66 219.429 60.8672 219.622 61.0482C219.861 61.2278 220.097 61.314 220.331 61.3069L227.122 61.0997C227.355 61.0926 227.563 60.9928 227.744 60.8004C227.971 60.6066 228.082 60.393 228.074 60.1596Z" fill="#6730B5"/>
<path d="M234.237 66.9095L235.034 67.6594L235.034 67.6594L234.237 66.9095ZM213.513 67.5418L212.763 68.3389L212.769 68.3447L212.775 68.3504L213.513 67.5418ZM211.731 50.4966L210.792 49.935L210.786 49.9451L211.731 50.4966ZM214.516 47.6085L215.108 48.5294L215.108 48.5294L214.516 47.6085ZM227.289 45.8873L226.579 45.0539L226.533 45.0932L226.491 45.1373L227.289 45.8873ZM227.16 41.6864L226.41 42.4836L226.455 42.5251L226.503 42.5615L227.16 41.6864ZM215.922 40.8379L215.172 41.6351L215.187 41.649L215.202 41.6623L215.922 40.8379ZM215.725 34.3966L216.522 35.1465L216.522 35.1465L215.725 34.3966ZM231.691 33.9796L231.156 34.9348L231.156 34.9348L231.691 33.9796ZM234.579 36.7647L233.648 37.3403L233.653 37.3483L233.658 37.3562L234.579 36.7647ZM227.558 54.7091L226.808 55.5063L226.852 55.5478L226.9 55.5842L227.558 54.7091ZM219.436 54.9569L218.727 54.1235L218.68 54.1628L218.639 54.207L219.436 54.9569ZM219.622 61.0482L218.872 61.8454L218.916 61.8869L218.964 61.9233L219.622 61.0482ZM227.744 60.8004L227.034 59.967L226.988 60.0063L226.946 60.0505L227.744 60.8004ZM235.283 61.2712C235.341 63.1772 234.733 64.7853 233.44 66.1595L235.034 67.6594C236.728 65.859 237.546 63.6861 237.471 61.2044L235.283 61.2712ZM233.44 66.1595C232.194 67.4834 230.673 68.1658 228.811 68.2226L228.878 70.4105C231.31 70.3364 233.384 69.414 235.034 67.6594L233.44 66.1595ZM228.811 68.2226L219.079 68.5195L219.146 70.7075L228.878 70.4105L228.811 68.2226ZM219.079 68.5195C217.216 68.5763 215.626 67.988 214.25 66.7332L212.775 68.3504C214.571 69.9889 216.714 70.7816 219.146 70.7075L219.079 68.5195ZM214.263 66.7446C212.889 65.4517 212.184 63.8837 212.125 61.9777L209.937 62.0444C210.013 64.5261 210.962 66.6451 212.763 68.3389L214.263 66.7446ZM212.125 61.9777L211.893 54.3461L209.705 54.4128L209.937 62.0444L212.125 61.9777ZM211.893 54.3461C211.854 53.0839 212.124 51.9958 212.677 51.0481L210.786 49.9451C210.007 51.2806 209.655 52.7811 209.705 54.4128L211.893 54.3461ZM212.671 51.0582C213.297 50.0108 214.107 49.1721 215.108 48.5294L213.925 46.6876C212.635 47.5163 211.588 48.603 210.792 49.935L212.671 51.0582ZM215.108 48.5294C216.076 47.9077 217.177 47.5711 218.439 47.5326L218.372 45.3446C216.74 45.3944 215.248 45.8378 213.925 46.6876L215.108 48.5294ZM218.439 47.5326L226.7 47.2805L226.634 45.0926L218.372 45.3446L218.439 47.5326ZM226.7 47.2805C227.263 47.2634 227.734 47.0108 228.086 46.6373L226.491 45.1373C226.479 45.1501 226.489 45.1367 226.523 45.1203C226.559 45.1027 226.6 45.0936 226.634 45.0926L226.7 47.2805ZM227.998 46.7207C228.459 46.328 228.731 45.7803 228.711 45.1431L226.523 45.2098C226.523 45.1928 226.526 45.1517 226.548 45.1048C226.569 45.06 226.59 45.0447 226.579 45.0539L227.998 46.7207ZM228.711 45.1431L228.626 42.3425L226.438 42.4093L226.523 45.2098L228.711 45.1431ZM228.626 42.3425C228.606 41.7052 228.302 41.1751 227.818 40.8113L226.503 42.5615C226.514 42.57 226.492 42.556 226.469 42.5126C226.444 42.4671 226.438 42.4263 226.438 42.4093L228.626 42.3425ZM227.91 40.8892C227.537 40.5378 227.051 40.3144 226.488 40.3316L226.555 42.5196C226.521 42.5206 226.48 42.514 226.443 42.4987C226.408 42.4844 226.398 42.4716 226.41 42.4836L227.91 40.8892ZM226.488 40.3316L218.227 40.5836L218.293 42.7716L226.555 42.5196L226.488 40.3316ZM218.227 40.5836C217.618 40.6022 217.107 40.4198 216.642 40.0136L215.202 41.6623C216.081 42.4298 217.129 42.8071 218.293 42.7716L218.227 40.5836ZM216.672 40.0408C216.266 39.6587 216.056 39.1994 216.037 38.5918L213.849 38.6586C213.885 39.8247 214.327 40.8406 215.172 41.6351L216.672 40.0408ZM216.037 38.5918L215.979 36.7015L213.792 36.7682L213.849 38.6586L216.037 38.5918ZM215.979 36.7015C215.959 36.03 216.151 35.5408 216.522 35.1465L214.928 33.6466C214.122 34.503 213.755 35.5726 213.792 36.7682L215.979 36.7015ZM216.522 35.1465C216.966 34.6746 217.456 34.4577 218.039 34.4399L217.972 32.2519C216.782 32.2882 215.751 32.7717 214.928 33.6466L216.522 35.1465ZM218.039 34.4399L227.771 34.143L227.704 31.955L217.972 32.2519L218.039 34.4399ZM227.771 34.143C229.033 34.1045 230.152 34.3733 231.156 34.9348L232.225 33.0243C230.852 32.2568 229.337 31.9052 227.704 31.955L227.771 34.143ZM231.156 34.9348C232.177 35.5058 233.006 36.3014 233.648 37.3403L235.51 36.1891C234.678 34.8436 233.58 33.7824 232.225 33.0243L231.156 34.9348ZM233.658 37.3562C234.28 38.3242 234.616 39.4251 234.655 40.6869L236.843 40.6201C236.793 38.9879 236.35 37.4964 235.5 36.1733L233.658 37.3562ZM234.655 40.6869L235.283 61.2712L237.471 61.2044L236.843 40.6201L234.655 40.6869ZM229.168 60.1262L229.021 55.2952L226.833 55.362L226.98 60.193L229.168 60.1262ZM229.021 55.2952C229.001 54.6398 228.639 54.1524 228.215 53.834L226.9 55.5842C226.933 55.6087 226.916 55.604 226.889 55.5591C226.858 55.5075 226.835 55.4368 226.833 55.362L229.021 55.2952ZM228.308 53.912C227.934 53.5605 227.448 53.3372 226.886 53.3543L226.952 55.5423C226.918 55.5433 226.877 55.5368 226.84 55.5214C226.805 55.5071 226.795 55.4943 226.808 55.5063L228.308 53.912ZM226.886 53.3543L220.094 53.5615L220.161 55.7495L226.952 55.5423L226.886 53.3543ZM220.094 53.5615C219.55 53.5781 219.09 53.8145 218.727 54.1235L220.145 55.7903C220.169 55.7706 220.187 55.7578 220.199 55.75C220.211 55.7421 220.217 55.7395 220.217 55.7395C220.217 55.7396 220.211 55.7421 220.2 55.7445C220.19 55.747 220.176 55.749 220.161 55.7495L220.094 53.5615ZM218.639 54.207C218.287 54.5805 218.064 55.0664 218.081 55.629L220.269 55.5622C220.27 55.5962 220.264 55.6371 220.248 55.6747C220.234 55.7097 220.221 55.7196 220.233 55.7069L218.639 54.207ZM218.081 55.629L218.229 60.46L220.417 60.3932L220.269 55.5622L218.081 55.629ZM218.229 60.46C218.246 61.0226 218.498 61.4939 218.872 61.8454L220.372 60.251C220.359 60.2391 220.372 60.2482 220.389 60.2822C220.406 60.3188 220.415 60.3593 220.417 60.3932L218.229 60.46ZM218.964 61.9233C219.346 62.2096 219.82 62.4175 220.364 62.4009L220.297 60.2129C220.312 60.2125 220.326 60.2136 220.337 60.2154C220.348 60.2173 220.353 60.2193 220.354 60.2194C220.354 60.2195 220.347 60.2172 220.335 60.2101C220.322 60.203 220.304 60.1914 220.279 60.1731L218.964 61.9233ZM220.364 62.4009L227.155 62.1937L227.089 60.0057L220.297 60.2129L220.364 62.4009ZM227.155 62.1937C227.718 62.1765 228.189 61.9239 228.541 61.5504L226.946 60.0505C226.934 60.0632 226.944 60.0498 226.978 60.0334C227.014 60.0158 227.055 60.0068 227.089 60.0057L227.155 62.1937ZM228.453 61.6338C228.857 61.2902 229.188 60.7816 229.168 60.1262L226.98 60.193C226.978 60.1181 226.997 60.0461 227.024 59.9927C227.048 59.9463 227.065 59.9406 227.034 59.967L228.453 61.6338Z" fill="#8A8A8A" fill-opacity="0.25" mask="url(#path-15-outside-8_39_2)"/>
<mask id="path-17-outside-9_39_2" maskUnits="userSpaceOnUse" x="234.137" y="30.0462" width="38.9431" height="41.7903" fill="black">
<rect fill="white" x="234.137" y="30.0462" width="38.9431" height="41.7903"/>
<path d="M270.008 35.7453L265.125 65.8655C265.022 66.6187 264.679 67.2436 264.096 67.7402C263.56 68.2345 262.918 68.5002 262.172 68.5373L260.213 68.6348C259.467 68.672 258.779 68.4725 258.15 68.0362C257.567 67.5977 257.163 67.0099 256.94 66.273L254.535 57.4156C254.477 57.1847 254.354 57.0739 254.168 57.0832C253.981 57.0925 253.87 57.2149 253.835 57.4504L252.392 66.4994C252.243 67.2549 251.9 67.8798 251.363 68.3741C250.827 68.8684 250.162 69.1352 249.369 69.1747L247.411 69.2722C246.664 69.3094 245.976 69.1098 245.347 68.6736C244.764 68.2351 244.361 67.6473 244.137 66.9104L236.287 37.4241C236.003 36.4096 236.145 35.5142 236.714 34.7377C237.419 33.8611 238.237 33.3995 239.17 33.3531L241.199 33.2521C241.945 33.2149 242.61 33.4156 243.193 33.8541C243.822 34.2904 244.25 34.9003 244.476 35.6839L246.811 44.5448C246.867 44.729 246.965 44.8177 247.105 44.8107C247.291 44.8014 247.403 44.7023 247.44 44.5134L249.023 35.4575C249.124 34.6576 249.442 34.0106 249.979 33.5163C250.562 33.0197 251.227 32.7528 251.973 32.7157L254.002 32.6147C254.701 32.5798 255.366 32.7805 255.995 33.2168C256.625 33.653 257.006 34.2652 257.139 35.0535L259.617 43.9774C259.673 44.1616 259.771 44.2502 259.911 44.2433C260.097 44.234 260.209 44.1349 260.247 43.946L261.756 34.8236C261.903 34.0214 262.245 33.3732 262.782 32.8789C263.365 32.3823 264.029 32.1155 264.776 32.0783L266.804 31.9773C267.737 31.9309 268.574 32.31 269.316 33.1147C270.011 33.9217 270.241 34.7986 270.008 35.7453Z"/>
</mask>
<path d="M270.008 35.7453L265.125 65.8655C265.022 66.6187 264.679 67.2436 264.096 67.7402C263.56 68.2345 262.918 68.5002 262.172 68.5373L260.213 68.6348C259.467 68.672 258.779 68.4725 258.15 68.0362C257.567 67.5977 257.163 67.0099 256.94 66.273L254.535 57.4156C254.477 57.1847 254.354 57.0739 254.168 57.0832C253.981 57.0925 253.87 57.2149 253.835 57.4504L252.392 66.4994C252.243 67.2549 251.9 67.8798 251.363 68.3741C250.827 68.8684 250.162 69.1352 249.369 69.1747L247.411 69.2722C246.664 69.3094 245.976 69.1098 245.347 68.6736C244.764 68.2351 244.361 67.6473 244.137 66.9104L236.287 37.4241C236.003 36.4096 236.145 35.5142 236.714 34.7377C237.419 33.8611 238.237 33.3995 239.17 33.3531L241.199 33.2521C241.945 33.2149 242.61 33.4156 243.193 33.8541C243.822 34.2904 244.25 34.9003 244.476 35.6839L246.811 44.5448C246.867 44.729 246.965 44.8177 247.105 44.8107C247.291 44.8014 247.403 44.7023 247.44 44.5134L249.023 35.4575C249.124 34.6576 249.442 34.0106 249.979 33.5163C250.562 33.0197 251.227 32.7528 251.973 32.7157L254.002 32.6147C254.701 32.5798 255.366 32.7805 255.995 33.2168C256.625 33.653 257.006 34.2652 257.139 35.0535L259.617 43.9774C259.673 44.1616 259.771 44.2502 259.911 44.2433C260.097 44.234 260.209 44.1349 260.247 43.946L261.756 34.8236C261.903 34.0214 262.245 33.3732 262.782 32.8789C263.365 32.3823 264.029 32.1155 264.776 32.0783L266.804 31.9773C267.737 31.9309 268.574 32.31 269.316 33.1147C270.011 33.9217 270.241 34.7986 270.008 35.7453Z" fill="#6730B5"/>
<path d="M270.008 35.7453L268.945 35.4833L268.935 35.5264L268.927 35.5702L270.008 35.7453ZM265.125 65.8655L264.045 65.6903L264.043 65.7039L264.041 65.7175L265.125 65.8655ZM264.096 67.7402L263.387 66.9069L263.37 66.9208L263.355 66.9353L264.096 67.7402ZM258.15 68.0362L257.492 68.9108L257.509 68.9237L257.526 68.9359L258.15 68.0362ZM256.94 66.273L255.883 66.5598L255.888 66.5754L255.892 66.5909L256.94 66.273ZM254.535 57.4156L253.474 57.6833L253.476 57.6928L253.479 57.7023L254.535 57.4156ZM253.835 57.4504L254.916 57.6228L254.918 57.6114L253.835 57.4504ZM252.392 66.4994L253.466 66.7117L253.47 66.6918L253.473 66.6718L252.392 66.4994ZM251.363 68.3741L252.105 69.179L251.363 68.3741ZM245.347 68.6736L244.689 69.5482L244.706 69.5611L244.724 69.5732L245.347 68.6736ZM244.137 66.9104L243.079 67.1919L243.084 67.2102L243.09 67.2283L244.137 66.9104ZM236.287 37.4241L237.344 37.1425L237.343 37.1356L237.341 37.1288L236.287 37.4241ZM236.714 34.7377L235.861 34.0522L235.846 34.0711L235.831 34.0906L236.714 34.7377ZM243.193 33.8541L242.535 34.7287L242.552 34.7416L242.569 34.7538L243.193 33.8541ZM244.476 35.6839L245.534 35.405L245.531 35.3927L245.528 35.3805L244.476 35.6839ZM246.811 44.5448L245.752 44.8236L245.758 44.8433L245.763 44.8627L246.811 44.5448ZM247.44 44.5134L248.514 44.7258L248.516 44.7139L248.519 44.7019L247.44 44.5134ZM249.023 35.4575L250.102 35.6459L250.106 35.62L250.109 35.5938L249.023 35.4575ZM249.979 33.5163L249.269 32.683L249.253 32.6969L249.237 32.7114L249.979 33.5163ZM257.139 35.0535L256.06 35.2352L256.069 35.2914L256.084 35.3463L257.139 35.0535ZM259.617 43.9774L258.562 44.2702L258.566 44.2828L258.57 44.2953L259.617 43.9774ZM260.247 43.946L261.32 44.1583L261.324 44.1416L261.326 44.1247L260.247 43.946ZM261.756 34.8236L260.68 34.6262L260.678 34.6355L260.676 34.6449L261.756 34.8236ZM262.782 32.8789L262.072 32.0457L262.056 32.0595L262.04 32.074L262.782 32.8789ZM269.316 33.1147L270.145 32.4006L270.133 32.3866L270.121 32.3731L269.316 33.1147ZM268.927 35.5702L264.045 65.6903L266.206 66.0406L271.088 35.9205L268.927 35.5702ZM264.041 65.7175C263.975 66.2018 263.767 66.5834 263.387 66.9069L264.806 68.5735C265.592 67.9038 266.07 67.0356 266.21 66.0135L264.041 65.7175ZM263.355 66.9353C263.011 67.2515 262.615 67.4194 262.118 67.4442L262.227 69.6305C263.222 69.5809 264.108 69.2174 264.838 68.5451L263.355 66.9353ZM262.118 67.4442L260.159 67.5417L260.268 69.728L262.227 69.6305L262.118 67.4442ZM260.159 67.5417C259.66 67.5665 259.21 67.4391 258.773 67.1366L257.526 68.9359C258.349 69.5058 259.274 69.7774 260.268 69.728L260.159 67.5417ZM258.808 67.1616C258.421 66.8707 258.147 66.4831 257.987 65.9551L255.892 66.5909C256.18 67.5368 256.713 68.3247 257.492 68.9108L258.808 67.1616ZM257.996 65.9862L255.591 57.1288L253.479 57.7023L255.883 66.5598L257.996 65.9862ZM255.596 57.1478C255.537 56.9111 255.412 56.5992 255.134 56.3479C254.829 56.0714 254.455 55.973 254.113 55.99L254.222 58.1763C254.067 58.184 253.848 58.1364 253.665 57.9707C253.51 57.8302 253.475 57.6891 253.474 57.6833L255.596 57.1478ZM254.113 55.99C253.772 56.007 253.41 56.1421 253.133 56.4475C252.882 56.7251 252.789 57.0479 252.753 57.2894L254.918 57.6114C254.917 57.6173 254.897 57.7611 254.756 57.9164C254.591 58.0994 254.377 58.1686 254.222 58.1763L254.113 55.99ZM252.755 57.278L251.311 66.327L253.473 66.6718L254.916 57.6228L252.755 57.278ZM251.319 66.2871C251.212 66.8284 250.978 67.2413 250.622 67.5692L252.105 69.179C252.822 68.5183 253.274 67.6815 253.466 66.7117L251.319 66.2871ZM250.622 67.5692C250.291 67.8742 249.876 68.0536 249.315 68.0816L249.424 70.2678C250.448 70.2168 251.363 69.8625 252.105 69.179L250.622 67.5692ZM249.315 68.0816L247.356 68.1791L247.465 70.3654L249.424 70.2678L249.315 68.0816ZM247.356 68.1791C246.857 68.2039 246.407 68.0765 245.97 67.774L244.724 69.5732C245.546 70.1432 246.471 70.4148 247.465 70.3654L247.356 68.1791ZM246.005 67.799C245.618 67.5081 245.345 67.1204 245.184 66.5924L243.09 67.2283C243.377 68.1742 243.91 68.962 244.689 69.5482L246.005 67.799ZM245.195 66.6288L237.344 37.1425L235.229 37.7057L243.079 67.1919L245.195 66.6288ZM237.341 37.1288C237.137 36.403 237.247 35.862 237.597 35.3848L235.831 34.0906C235.043 35.1663 234.868 36.4162 235.233 37.7194L237.341 37.1288ZM237.567 35.4233C238.12 34.7361 238.667 34.4739 239.224 34.4462L239.116 32.2599C237.807 32.3251 236.718 32.986 235.861 34.0522L237.567 35.4233ZM239.224 34.4462L241.253 34.3452L241.144 32.1589L239.116 32.2599L239.224 34.4462ZM241.253 34.3452C241.751 34.3204 242.162 34.4482 242.535 34.7287L243.851 32.9795C243.058 32.383 242.14 32.1094 241.144 32.1589L241.253 34.3452ZM242.569 34.7538C242.978 35.0367 243.263 35.4289 243.424 35.9872L245.528 35.3805C245.237 34.3717 244.667 33.544 243.816 32.9545L242.569 34.7538ZM243.418 35.9627L245.752 44.8236L247.869 44.2659L245.534 35.405L243.418 35.9627ZM245.763 44.8627C245.824 45.063 245.943 45.336 246.192 45.5609C246.47 45.8127 246.819 45.9208 247.159 45.9038L247.05 43.7176C247.251 43.7076 247.48 43.7748 247.661 43.938C247.811 44.0743 247.853 44.2108 247.858 44.2269L245.763 44.8627ZM247.159 45.9038C247.437 45.89 247.769 45.8009 248.054 45.549C248.335 45.3 248.462 44.9872 248.514 44.7258L246.367 44.3011C246.381 44.2286 246.434 44.0597 246.603 43.9098C246.776 43.757 246.958 43.7221 247.05 43.7176L247.159 45.9038ZM248.519 44.7019L250.102 35.6459L247.945 35.269L246.362 44.325L248.519 44.7019ZM250.109 35.5938C250.181 35.0217 250.394 34.6216 250.72 34.3212L249.237 32.7114C248.49 33.3996 248.066 34.2936 247.937 35.3211L250.109 35.5938ZM250.688 34.3496C251.093 34.0052 251.529 33.8336 252.027 33.8088L251.918 31.6225C250.925 31.672 250.031 32.0342 249.269 32.683L250.688 34.3496ZM252.027 33.8088L254.056 33.7078L253.947 31.5215L251.918 31.6225L252.027 33.8088ZM254.056 33.7078C254.492 33.6861 254.921 33.804 255.372 34.1164L256.619 32.3171C255.81 31.7571 254.911 31.4736 253.947 31.5215L254.056 33.7078ZM255.372 34.1164C255.747 34.3765 255.973 34.7237 256.06 35.2352L258.218 34.8717C258.039 33.8067 257.502 32.9294 256.619 32.3171L255.372 34.1164ZM256.084 35.3463L258.562 44.2702L260.672 43.6845L258.193 34.7606L256.084 35.3463ZM258.57 44.2953C258.631 44.4956 258.749 44.7685 258.998 44.9935C259.276 45.2453 259.625 45.3534 259.965 45.3364L259.856 43.1501C260.057 43.1402 260.287 43.2074 260.467 43.3706C260.617 43.5069 260.659 43.6433 260.664 43.6594L258.57 44.2953ZM259.965 45.3364C260.243 45.3226 260.575 45.2335 260.86 44.9816C261.141 44.7326 261.269 44.4197 261.32 44.1583L259.173 43.7337C259.187 43.6612 259.24 43.4923 259.409 43.3424C259.582 43.1896 259.765 43.1547 259.856 43.1501L259.965 45.3364ZM261.326 44.1247L262.836 35.0023L260.676 34.6449L259.167 43.7673L261.326 44.1247ZM262.833 35.021C262.942 34.4233 263.182 33.9984 263.523 33.6838L262.04 32.074C261.308 32.748 260.864 33.6195 260.68 34.6262L262.833 35.021ZM263.491 33.7122C263.896 33.3679 264.331 33.1963 264.83 33.1714L264.721 30.9852C263.727 31.0346 262.834 31.3968 262.072 32.0457L263.491 33.7122ZM264.83 33.1714L266.859 33.0704L266.75 30.8842L264.721 30.9852L264.83 33.1714ZM266.859 33.0704C267.41 33.043 267.948 33.2449 268.511 33.8563L270.121 32.3731C269.201 31.375 268.064 30.8187 266.75 30.8842L266.859 33.0704ZM268.486 33.8288C268.975 34.3962 269.085 34.9159 268.945 35.4833L271.07 36.0073C271.397 34.6813 271.046 33.4472 270.145 32.4006L268.486 33.8288Z" fill="#8A8A8A" fill-opacity="0.25" mask="url(#path-17-outside-9_39_2)"/>
<path d="M291.933 63.6298L285.884 62.6594C285.567 62.6085 285.336 62.3334 285.388 62.0695L286.89 54.5306C286.93 54.3275 287.129 54.1923 287.373 54.2012C288.426 54.2397 290.257 54.2936 291.556 54.2875C292.85 54.2814 294.405 55.0449 295.272 55.5791C295.48 55.7071 295.563 55.9339 295.486 56.1214L292.469 63.3792C292.391 63.5657 292.172 63.6682 291.933 63.6298Z" fill="#CD8653" stroke="#873800"/>
<path d="M308.452 1.12063C305.395 0.195176 293.198 34.1979 287.277 51.9141C287.176 52.2169 287.48 52.5411 287.856 52.5469C288.99 52.5643 290.634 52.5962 291.667 52.6381C292.77 52.6828 294.347 52.9859 295.312 53.2015C295.582 53.2619 295.837 53.155 295.907 52.9363C301.446 35.8062 311.523 2.05018 308.452 1.12063Z" fill="#CD8653" stroke="#873800"/>
<path d="M276.393 74.2536C278.32 71.2666 285.635 72.6012 287.54 74.6753C290.588 78.4738 290.213 81.8971 288.431 83.5673C286.04 85.8082 280.098 86.6518 278.461 87.0054C277.982 87.1086 276.656 87.1591 274.997 87.133C273.16 87.1042 273.286 84.9653 274.565 83.647C276.668 81.479 274.467 77.2405 276.393 74.2536Z" fill="#D03636" stroke="#850000"/>
<path d="M221 94.226C188.729 94.226 163.5 88.7261 113 88.7261C144.5 82.7262 233.5 88.726 253 87.226C259.76 86.7061 237.729 94.226 221 94.226Z" fill="#D03636" stroke="#850000"/>
</svg>
